<?xml version="1.0" encoding="UTF-8"?>
<!-- Generator: Adobe Illustrator 23.0.1, SVG Export Plug-In . SVG Version: 6.00 Build 0)  -->
<svg version="1.1" id="Logo" xmlns="http://www.w3.org/2000/svg" xmlns:xlink="http://www.w3.org/1999/xlink" x="0px" y="0px" viewBox="0 0 1389 266" style="enable-background:new 0 0 1389 266;" xml:space="preserve">
<style type="text/css">
	.st0{fill:#ffffff;}
	.st1{fill:#ffffff;}
</style>
<g>
	<path class="st0" d="M632.74,76.85c-0.96-1.66-2.73-2.68-4.65-2.68h-4.46c-1.18,0-2.27,0.65-2.78,1.71l-38.87,77.36   c-0.81,1.62-3.13,1.62-3.95,0l-38.89-77.36c-0.51-1.06-1.6-1.71-2.75-1.71h-4.48c-1.92,0-3.69,1.02-4.65,2.68l-4.94,8.55   c-0.83,1.48-0.9,3.29-0.12,4.82l46.26,91.04c0.76,1.46,2.27,2.39,3.91,2.39h15.26c1.67,0,3.17-0.93,3.91-2.39l46.28-91.04   c0.77-1.52,0.73-3.32-0.13-4.79L632.74,76.85z"/>
	<path class="st0" d="M403.53,76.83c-0.95-1.65-2.72-2.67-4.62-2.67h-4.48c-1.18,0-2.27,0.65-2.78,1.71l-38.87,77.36   c-0.82,1.62-3.13,1.62-3.95,0l-38.89-77.36c-0.51-1.06-1.6-1.71-2.75-1.71h-4.5c-1.91,0-3.67,1.02-4.62,2.67l-4.95,8.56   c-0.83,1.48-0.9,3.29-0.12,4.82l46.26,91.04c0.76,1.46,2.27,2.39,3.91,2.39h15.26c1.67,0,3.17-0.93,3.91-2.39l46.28-91.04   c0.77-1.52,0.73-3.32-0.13-4.79L403.53,76.83z"/>
	<path class="st0" d="M471.77,74.16h-6.92c-1.91,0-3.68,1.02-4.63,2.68l-4.93,8.57c-0.44,0.77-0.67,1.64-0.67,2.52v91.28   c0,2.45,1.99,4.44,4.44,4.44h12.77c2.43,0,4.4-1.97,4.4-4.4V78.61c0-1.23-0.5-2.34-1.31-3.15   C474.11,74.66,472.99,74.16,471.77,74.16z"/>
	<path class="st0" d="M707.13,93.58h60.41c1.67,0,3.01-1.37,3.01-3v-2c0-1.33-0.35-2.63-1.01-3.78l-4.67-8.02   c-0.94-1.62-2.67-2.62-4.54-2.62h-66.27c-1.91,0-3.68,1.02-4.63,2.67l-4.61,7.96c-0.66,1.15-1.01,2.46-1.01,3.78l-0.01,80.65   c0,1.34,0.35,2.64,1.02,3.8l4.61,7.96c0.96,1.65,2.72,2.67,4.63,2.67h66.27c1.87,0,3.6-1,4.54-2.62l4.67-8.04   c0.66-1.15,1.01-2.46,1.01-3.79v-2.01c0-1.65-1.35-2.98-3.01-2.98h-60.42c-1.22,0-2.2-0.99-2.2-2.2v-21.52c0-1.22,0.99-2.2,2.2-2.2   h40.92c2,0,3.64-1.64,3.64-3.64V122.6c0-1.99-1.62-3.61-3.61-3.64h-40.95c-1.22,0-2.2-0.99-2.2-2.2V95.8   C704.92,94.58,705.92,93.58,707.13,93.58z"/>
	<path class="st0" d="M900.75,82.86c-8.27-8.2-18.98-8.53-21.07-8.51c-0.98,0.01-51.66-0.02-51.66-0.02c-1.91,0-3.68,1.02-4.63,2.68   l-4.93,8.57c-0.44,0.77-0.67,1.64-0.67,2.52v91.28c0,2.45,1.99,4.44,4.44,4.44h12.77c2.43,0,4.4-1.97,4.4-4.4v-40.6h40.37   c14.76,0,29.66-10.15,29.66-32.81C909.41,93.98,904.7,86.78,900.75,82.86z M879.76,119.36h-40.37V93.8l40.39,0   c6.94,0,10.19,4.68,10.19,12.19C889.96,114.86,886.72,119.36,879.76,119.36z"/>
	<path class="st0" d="M1004.08,183.72c-30.19,0-54.74-24.56-54.74-54.74c0-30.19,24.56-54.74,54.74-54.74   c30.18,0,54.74,24.56,54.74,54.74C1058.82,159.16,1034.26,183.72,1004.08,183.72z M1004.08,93.68c-19.46,0-35.3,15.83-35.3,35.3   c0,19.46,15.83,35.3,35.3,35.3c19.46,0,35.3-15.83,35.3-35.3C1039.37,109.51,1023.54,93.68,1004.08,93.68z"/>
	<path class="st0" d="M1193.11,167.76l-16.16-31.8c9.41-4.43,16.67-14.14,16.67-29.97c0-12.02-4.71-19.21-8.67-23.13   c-8.27-8.2-18.98-8.53-21.07-8.51c-0.98,0.01-51.66-0.02-51.66-0.02c-1.91,0-3.68,1.02-4.63,2.68l-4.93,8.57   c-0.44,0.77-0.67,1.64-0.67,2.52v91.28c0,2.45,1.99,4.44,4.44,4.44h12.77c2.43,0,4.4-1.97,4.4-4.4v-40.6h30.8l21.76,43.28   c0.51,1.06,1.6,1.71,2.75,1.71h4.5c1.91,0,3.67-1.02,4.62-2.67l4.95-8.56C1193.83,171.09,1193.9,169.29,1193.11,167.76z    M1123.6,93.8l40.39,0c6.94,0,10.19,4.68,10.19,12.19c0,8.87-3.24,13.37-10.21,13.37h-40.37V93.8z"/>
	<path class="st0" d="M1323.5,84.89l-4.67-8.02c-0.94-1.62-2.67-2.62-4.54-2.62h-19.02H1267h-19.02c-1.87,0-3.6,1-4.54,2.62   l-4.67,8.02c-0.66,1.15-1.01,2.46-1.01,3.78v2c0,1.64,1.35,3,3.01,3H1267h3.35v85.7c0,2.45,1.99,4.44,4.44,4.44h12.77   c2.43,0,4.4-1.97,4.4-4.4V93.67h3.31h26.23c1.67,0,3.01-1.37,3.01-3v-2C1324.51,87.34,1324.16,86.04,1323.5,84.89z"/>
	<path class="st0" d="M1332.16,74.2v0.62h1.61v3.9h0.74v-3.9h1.58V74.2H1332.16z M1340.83,74.2l-1.54,3.55h-0.04l-1.52-3.55h-1.01   v4.52h0.74l-0.04-3.51h0.04l1.51,3.51h0.62l1.52-3.51h0.04l-0.04,3.51h0.74V74.2H1340.83z"/>
</g>
<g>
	<path class="st1" d="M246.76,152.88L246.76,152.88c-8.26-39.54-28.37-74.97-58.15-102.45c-18.46-17.03-46.29-17.03-64.74,0.01   c-29.78,27.5-49.88,62.93-58.13,102.46c-5,23.93,4.24,66.11,92.5,66.11S251.76,176.8,246.76,152.88z M214.4,197.58   c-13.82,5.46-31.27,9.49-54.95,9.75c-24.06,0.26-39.21-1.65-57.03-7.29c-20.86-6.6-33.67-22.88-28.57-46.44   c7.94-36.7,45.36-103,82.53-103s76.09,65.03,84.26,104.13C245.11,176.22,232.92,190.26,214.4,197.58z"/>
</g>
<path class="st1" d="M110.2,169.17c-18.91-28.11-5.44-64.67-3.13-75.97c-16.35,26.24-33.75,68.34-22.49,84.63  c19.36,28.03,97.97,22.49,97.97,22.49S129.11,197.28,110.2,169.17z"/>
<path class="st1" d="M192.52,92.74c-6.26-10.66-18.77-14.93-27.94-9.54c-9.18,5.39-11.54,18.39-5.28,29.05  c6.26,10.66,18.77,14.93,27.94,9.54C196.41,116.4,198.78,103.39,192.52,92.74z M181.92,117.44c-6.41,3.77-15.11,0.86-19.43-6.49  c-4.31-7.35-2.61-16.36,3.8-20.12c6.41-3.77,15.11-0.86,19.43,6.49C190.04,104.66,188.34,113.67,181.92,117.44z"/>
</svg>